<svg width="113" height="54" viewBox="0 0 113 54" fill="none" xmlns="http://www.w3.org/2000/svg">
<path d="M101.67 11.4785C103.688 11.4785 105.469 11.8884 107.014 12.7082C108.591 13.4965 109.82 14.7263 110.703 16.3974C111.618 18.0371 112.075 20.1497 112.075 22.7353V37.3028H104.697V23.8704C104.697 21.8209 104.271 20.3073 103.42 19.3299C102.568 18.3524 101.37 17.8637 99.8249 17.8637C98.7528 17.8637 97.7911 18.1159 96.9398 18.6204C96.0884 19.0934 95.4263 19.8186 94.9533 20.7961C94.4803 21.7736 94.2438 23.0191 94.2438 24.5326V37.3028H86.8654V23.8704C86.8654 21.8209 86.4398 20.3073 85.5884 19.3299C84.7686 18.3524 83.5862 17.8637 82.0411 17.8637C80.9691 17.8637 80.0073 18.1159 79.156 18.6204C78.3046 19.0934 77.6425 19.8186 77.1695 20.7961C76.6965 21.7736 76.46 23.0191 76.46 24.5326C76.1763 34.3704 72.629 37.9177 66.7168 37.9177V28.4583C68.9203 28.7071 69.4954 25.3735 69.0817 11.8569H76.129V18.8096L74.8046 16.7758C75.6875 15.0416 76.933 13.733 78.5411 12.8501C80.1808 11.9357 82.0411 11.4785 84.1222 11.4785C86.4555 11.4785 88.4893 12.0776 90.2236 13.2758C91.9893 14.4425 93.156 16.2398 93.7236 18.6677L91.1222 17.9582C91.9736 15.9718 93.3294 14.3952 95.1898 13.2285C97.0817 12.0618 99.2416 11.4785 101.67 11.4785Z" fill="#122F62"/>
<path d="M51.4389 11.4793C53.4569 11.4793 55.2542 11.8892 56.8308 12.709C58.4389 13.4973 59.7001 14.727 60.6146 16.3982C61.529 18.0378 61.9862 20.1504 61.9862 22.736C61.9862 28.459 64.351 28.459 64.351 28.459V37.9185C64.351 37.9185 54.6078 35.5536 54.6078 23.8712C54.6078 23.8712 54.1506 20.3081 53.2362 19.3306C52.3533 18.3531 51.092 17.8644 49.4524 17.8644C48.2857 17.8644 47.2294 18.1166 46.2835 18.6212C45.3691 19.0941 44.6438 19.8351 44.1078 20.8441C43.6033 21.8531 43.351 23.1459 43.351 24.7225V37.3036H35.9727V2.20898H43.351V18.9049L41.6956 16.7766C42.61 15.0739 43.9186 13.7653 45.6213 12.8509C47.324 11.9365 49.2632 11.4793 51.4389 11.4793Z" fill="#E41366"/>
<path fill-rule="evenodd" clip-rule="evenodd" d="M22.6819 11.8571V37.3031H30.0602V11.8571H22.6819Z" fill="#E41366"/>
<path d="M26.371 8.30981C25.0152 8.30981 23.9116 7.91567 23.0602 7.12738C22.2089 6.33909 21.7832 5.36161 21.7832 4.19494C21.7832 3.02828 22.2089 2.0508 23.0602 1.26251C23.9116 0.474223 25.0152 0.0800781 26.371 0.0800781C27.7269 0.0800781 28.8305 0.458457 29.6819 1.21522C30.5332 1.94044 30.9589 2.88639 30.9589 4.05305C30.9589 5.28278 30.5332 6.30756 29.6819 7.12738C28.862 7.91567 27.7584 8.30981 26.371 8.30981Z" fill="#E41366"/>
<path d="M13.9324 37.6812C10.9369 37.6812 8.60361 36.9245 6.93243 35.411C5.26126 33.8659 4.42568 31.5799 4.42568 28.5528V6.22852H11.8041V28.4583C11.8041 29.5303 12.0878 30.3659 12.6554 30.965C13.223 31.5326 13.9955 31.8164 14.973 31.8164C16.1396 31.8164 17.1329 31.501 17.9527 30.8704L19.9392 36.0731C19.1824 36.6092 18.268 37.0191 17.196 37.3028C16.1554 37.5551 15.0676 37.6812 13.9324 37.6812ZM0.5 18.1001V12.4245H18.1419V18.1001H0.5Z" fill="#E41366"/>
<path d="M6.82422 48.998V49.918H2.55859V48.998H6.82422ZM2.78125 41.3867V49.918H1.65039V41.3867H2.78125ZM10.5859 50.0352C10.1445 50.0352 9.74414 49.9609 9.38477 49.8125C9.0293 49.6602 8.72266 49.4473 8.46484 49.1738C8.21094 48.9004 8.01562 48.5762 7.87891 48.2012C7.74219 47.8262 7.67383 47.416 7.67383 46.9707V46.7246C7.67383 46.209 7.75 45.75 7.90234 45.3477C8.05469 44.9414 8.26172 44.5977 8.52344 44.3164C8.78516 44.0352 9.08203 43.8223 9.41406 43.6777C9.74609 43.5332 10.0898 43.4609 10.4453 43.4609C10.8984 43.4609 11.2891 43.5391 11.6172 43.6953C11.9492 43.8516 12.2207 44.0703 12.4316 44.3516C12.6426 44.6289 12.7988 44.957 12.9004 45.3359C13.002 45.7109 13.0527 46.1211 13.0527 46.5664V47.0527H8.31836V46.168H11.9688V46.0859C11.9531 45.8047 11.8945 45.5312 11.793 45.2656C11.6953 45 11.5391 44.7812 11.3242 44.6094C11.1094 44.4375 10.8164 44.3516 10.4453 44.3516C10.1992 44.3516 9.97266 44.4043 9.76562 44.5098C9.55859 44.6113 9.38086 44.7637 9.23242 44.9668C9.08398 45.1699 8.96875 45.418 8.88672 45.7109C8.80469 46.0039 8.76367 46.3418 8.76367 46.7246V46.9707C8.76367 47.2715 8.80469 47.5547 8.88672 47.8203C8.97266 48.082 9.0957 48.3125 9.25586 48.5117C9.41992 48.7109 9.61719 48.8672 9.84766 48.9805C10.082 49.0938 10.3477 49.1504 10.6445 49.1504C11.0273 49.1504 11.3516 49.0723 11.6172 48.916C11.8828 48.7598 12.1152 48.5508 12.3145 48.2891L12.9707 48.8105C12.834 49.0176 12.6602 49.2148 12.4492 49.4023C12.2383 49.5898 11.9785 49.7422 11.6699 49.8594C11.3652 49.9766 11.0039 50.0352 10.5859 50.0352ZM18.373 44.8379V49.918H17.2832V43.5781H18.3145L18.373 44.8379ZM18.1504 46.5078L17.6465 46.4902C17.6504 46.0566 17.707 45.6562 17.8164 45.2891C17.9258 44.918 18.0879 44.5957 18.3027 44.3223C18.5176 44.0488 18.7852 43.8379 19.1055 43.6895C19.4258 43.5371 19.7969 43.4609 20.2188 43.4609C20.5156 43.4609 20.7891 43.5039 21.0391 43.5898C21.2891 43.6719 21.5059 43.8027 21.6895 43.9824C21.873 44.1621 22.0156 44.3926 22.1172 44.6738C22.2188 44.9551 22.2695 45.2949 22.2695 45.6934V49.918H21.1855V45.7461C21.1855 45.4141 21.1289 45.1484 21.0156 44.9492C20.9062 44.75 20.75 44.6055 20.5469 44.5156C20.3438 44.4219 20.1055 44.375 19.832 44.375C19.5117 44.375 19.2441 44.4316 19.0293 44.5449C18.8145 44.6582 18.6426 44.8145 18.5137 45.0137C18.3848 45.2129 18.291 45.4414 18.2324 45.6992C18.1777 45.9531 18.1504 46.2227 18.1504 46.5078ZM22.2578 45.9102L21.5312 46.1328C21.5352 45.7852 21.5918 45.4512 21.7012 45.1309C21.8145 44.8105 21.9766 44.5254 22.1875 44.2754C22.4023 44.0254 22.666 43.8281 22.9785 43.6836C23.291 43.5352 23.6484 43.4609 24.0508 43.4609C24.3906 43.4609 24.6914 43.5059 24.9531 43.5957C25.2188 43.6855 25.4414 43.8242 25.6211 44.0117C25.8047 44.1953 25.9434 44.4316 26.0371 44.7207C26.1309 45.0098 26.1777 45.3535 26.1777 45.752V49.918H25.0879V45.7402C25.0879 45.3848 25.0312 45.1094 24.918 44.9141C24.8086 44.7148 24.6523 44.5762 24.4492 44.498C24.25 44.416 24.0117 44.375 23.7344 44.375C23.4961 44.375 23.2852 44.416 23.1016 44.498C22.918 44.5801 22.7637 44.6934 22.6387 44.8379C22.5137 44.9785 22.418 45.1406 22.3516 45.3242C22.2891 45.5078 22.2578 45.7031 22.2578 45.9102ZM30.4492 50.0352C30.0078 50.0352 29.6074 49.9609 29.248 49.8125C28.8926 49.6602 28.5859 49.4473 28.3281 49.1738C28.0742 48.9004 27.8789 48.5762 27.7422 48.2012C27.6055 47.8262 27.5371 47.416 27.5371 46.9707V46.7246C27.5371 46.209 27.6133 45.75 27.7656 45.3477C27.918 44.9414 28.125 44.5977 28.3867 44.3164C28.6484 44.0352 28.9453 43.8223 29.2773 43.6777C29.6094 43.5332 29.9531 43.4609 30.3086 43.4609C30.7617 43.4609 31.1523 43.5391 31.4805 43.6953C31.8125 43.8516 32.084 44.0703 32.2949 44.3516C32.5059 44.6289 32.6621 44.957 32.7637 45.3359C32.8652 45.7109 32.916 46.1211 32.916 46.5664V47.0527H28.1816V46.168H31.832V46.0859C31.8164 45.8047 31.7578 45.5312 31.6562 45.2656C31.5586 45 31.4023 44.7812 31.1875 44.6094C30.9727 44.4375 30.6797 44.3516 30.3086 44.3516C30.0625 44.3516 29.8359 44.4043 29.6289 44.5098C29.4219 44.6113 29.2441 44.7637 29.0957 44.9668C28.9473 45.1699 28.832 45.418 28.75 45.7109C28.668 46.0039 28.627 46.3418 28.627 46.7246V46.9707C28.627 47.2715 28.668 47.5547 28.75 47.8203C28.8359 48.082 28.959 48.3125 29.1191 48.5117C29.2832 48.7109 29.4805 48.8672 29.7109 48.9805C29.9453 49.0938 30.2109 49.1504 30.5078 49.1504C30.8906 49.1504 31.2148 49.0723 31.4805 48.916C31.7461 48.7598 31.9785 48.5508 32.1777 48.2891L32.834 48.8105C32.6973 49.0176 32.5234 49.2148 32.3125 49.4023C32.1016 49.5898 31.8418 49.7422 31.5332 49.8594C31.2285 49.9766 30.8672 50.0352 30.4492 50.0352ZM37.873 48.2363C37.873 48.0801 37.8379 47.9355 37.7676 47.8027C37.7012 47.666 37.5625 47.543 37.3516 47.4336C37.1445 47.3203 36.832 47.2227 36.4141 47.1406C36.0625 47.0664 35.7441 46.9785 35.459 46.877C35.1777 46.7754 34.9375 46.6523 34.7383 46.5078C34.543 46.3633 34.3926 46.1934 34.2871 45.998C34.1816 45.8027 34.1289 45.5742 34.1289 45.3125C34.1289 45.0625 34.1836 44.8262 34.293 44.6035C34.4062 44.3809 34.5645 44.1836 34.7676 44.0117C34.9746 43.8398 35.2227 43.7051 35.5117 43.6074C35.8008 43.5098 36.123 43.4609 36.4785 43.4609C36.9863 43.4609 37.4199 43.5508 37.7793 43.7305C38.1387 43.9102 38.4141 44.1504 38.6055 44.4512C38.7969 44.748 38.8926 45.0781 38.8926 45.4414H37.8086C37.8086 45.2656 37.7559 45.0957 37.6504 44.9316C37.5488 44.7637 37.3984 44.625 37.1992 44.5156C37.0039 44.4062 36.7637 44.3516 36.4785 44.3516C36.1777 44.3516 35.9336 44.3984 35.7461 44.4922C35.5625 44.582 35.4277 44.6973 35.3418 44.8379C35.2598 44.9785 35.2188 45.127 35.2188 45.2832C35.2188 45.4004 35.2383 45.5059 35.2773 45.5996C35.3203 45.6895 35.3945 45.7734 35.5 45.8516C35.6055 45.9258 35.7539 45.9961 35.9453 46.0625C36.1367 46.1289 36.3809 46.1953 36.6777 46.2617C37.1973 46.3789 37.625 46.5195 37.9609 46.6836C38.2969 46.8477 38.5469 47.0488 38.7109 47.2871C38.875 47.5254 38.957 47.8145 38.957 48.1543C38.957 48.4316 38.8984 48.6855 38.7812 48.916C38.668 49.1465 38.502 49.3457 38.2832 49.5137C38.0684 49.6777 37.8105 49.8066 37.5098 49.9004C37.2129 49.9902 36.8789 50.0352 36.5078 50.0352C35.9492 50.0352 35.4766 49.9355 35.0898 49.7363C34.7031 49.5371 34.4102 49.2793 34.2109 48.9629C34.0117 48.6465 33.9121 48.3125 33.9121 47.9609H35.002C35.0176 48.2578 35.1035 48.4941 35.2598 48.6699C35.416 48.8418 35.6074 48.9648 35.834 49.0391C36.0605 49.1094 36.2852 49.1445 36.5078 49.1445C36.8047 49.1445 37.0527 49.1055 37.252 49.0273C37.4551 48.9492 37.6094 48.8418 37.7148 48.7051C37.8203 48.5684 37.873 48.4121 37.873 48.2363ZM44.0723 48.2363C44.0723 48.0801 44.0371 47.9355 43.9668 47.8027C43.9004 47.666 43.7617 47.543 43.5508 47.4336C43.3438 47.3203 43.0312 47.2227 42.6133 47.1406C42.2617 47.0664 41.9434 46.9785 41.6582 46.877C41.377 46.7754 41.1367 46.6523 40.9375 46.5078C40.7422 46.3633 40.5918 46.1934 40.4863 45.998C40.3809 45.8027 40.3281 45.5742 40.3281 45.3125C40.3281 45.0625 40.3828 44.8262 40.4922 44.6035C40.6055 44.3809 40.7637 44.1836 40.9668 44.0117C41.1738 43.8398 41.4219 43.7051 41.7109 43.6074C42 43.5098 42.3223 43.4609 42.6777 43.4609C43.1855 43.4609 43.6191 43.5508 43.9785 43.7305C44.3379 43.9102 44.6133 44.1504 44.8047 44.4512C44.9961 44.748 45.0918 45.0781 45.0918 45.4414H44.0078C44.0078 45.2656 43.9551 45.0957 43.8496 44.9316C43.748 44.7637 43.5977 44.625 43.3984 44.5156C43.2031 44.4062 42.9629 44.3516 42.6777 44.3516C42.377 44.3516 42.1328 44.3984 41.9453 44.4922C41.7617 44.582 41.627 44.6973 41.541 44.8379C41.459 44.9785 41.418 45.127 41.418 45.2832C41.418 45.4004 41.4375 45.5059 41.4766 45.5996C41.5195 45.6895 41.5938 45.7734 41.6992 45.8516C41.8047 45.9258 41.9531 45.9961 42.1445 46.0625C42.3359 46.1289 42.5801 46.1953 42.877 46.2617C43.3965 46.3789 43.8242 46.5195 44.1602 46.6836C44.4961 46.8477 44.7461 47.0488 44.9102 47.2871C45.0742 47.5254 45.1562 47.8145 45.1562 48.1543C45.1562 48.4316 45.0977 48.6855 44.9805 48.916C44.8672 49.1465 44.7012 49.3457 44.4824 49.5137C44.2676 49.6777 44.0098 49.8066 43.709 49.9004C43.4121 49.9902 43.0781 50.0352 42.707 50.0352C42.1484 50.0352 41.6758 49.9355 41.2891 49.7363C40.9023 49.5371 40.6094 49.2793 40.4102 48.9629C40.2109 48.6465 40.1113 48.3125 40.1113 47.9609H41.2012C41.2168 48.2578 41.3027 48.4941 41.459 48.6699C41.6152 48.8418 41.8066 48.9648 42.0332 49.0391C42.2598 49.1094 42.4844 49.1445 42.707 49.1445C43.0039 49.1445 43.252 49.1055 43.4512 49.0273C43.6543 48.9492 43.8086 48.8418 43.9141 48.7051C44.0195 48.5684 44.0723 48.4121 44.0723 48.2363ZM50.3184 48.834V45.5703C50.3184 45.3203 50.2676 45.1035 50.166 44.9199C50.0684 44.7324 49.9199 44.5879 49.7207 44.4863C49.5215 44.3848 49.2754 44.334 48.9824 44.334C48.709 44.334 48.4688 44.3809 48.2617 44.4746C48.0586 44.5684 47.8984 44.6914 47.7812 44.8438C47.668 44.9961 47.6113 45.1602 47.6113 45.3359H46.5273C46.5273 45.1094 46.5859 44.8848 46.7031 44.6621C46.8203 44.4395 46.9883 44.2383 47.207 44.0586C47.4297 43.875 47.6953 43.7305 48.0039 43.625C48.3164 43.5156 48.6641 43.4609 49.0469 43.4609C49.5078 43.4609 49.9141 43.5391 50.2656 43.6953C50.6211 43.8516 50.8984 44.0879 51.0977 44.4043C51.3008 44.7168 51.4023 45.1094 51.4023 45.582V48.5352C51.4023 48.7461 51.4199 48.9707 51.4551 49.209C51.4941 49.4473 51.5508 49.6523 51.625 49.8242V49.918H50.4941C50.4395 49.793 50.3965 49.627 50.3652 49.4199C50.334 49.209 50.3184 49.0137 50.3184 48.834ZM50.5059 46.0742L50.5176 46.8359H49.4219C49.1133 46.8359 48.8379 46.8613 48.5957 46.9121C48.3535 46.959 48.1504 47.0312 47.9863 47.1289C47.8223 47.2266 47.6973 47.3496 47.6113 47.498C47.5254 47.6426 47.4824 47.8125 47.4824 48.0078C47.4824 48.207 47.5273 48.3887 47.6172 48.5527C47.707 48.7168 47.8418 48.8477 48.0215 48.9453C48.2051 49.0391 48.4297 49.0859 48.6953 49.0859C49.0273 49.0859 49.3203 49.0156 49.5742 48.875C49.8281 48.7344 50.0293 48.5625 50.1777 48.3594C50.3301 48.1562 50.4121 47.959 50.4238 47.7676L50.8867 48.2891C50.8594 48.4531 50.7852 48.6348 50.6641 48.834C50.543 49.0332 50.3809 49.2246 50.1777 49.4082C49.9785 49.5879 49.7402 49.7383 49.4629 49.8594C49.1895 49.9766 48.8809 50.0352 48.5371 50.0352C48.1074 50.0352 47.7305 49.9512 47.4062 49.7832C47.0859 49.6152 46.8359 49.3906 46.6562 49.1094C46.4805 48.8242 46.3926 48.5059 46.3926 48.1543C46.3926 47.8145 46.459 47.5156 46.5918 47.2578C46.7246 46.9961 46.916 46.7793 47.166 46.6074C47.416 46.4316 47.7168 46.2988 48.0684 46.209C48.4199 46.1191 48.8125 46.0742 49.2461 46.0742H50.5059ZM57.2148 43.5781H58.1992V49.7832C58.1992 50.3418 58.0859 50.8184 57.8594 51.2129C57.6328 51.6074 57.3164 51.9062 56.9102 52.1094C56.5078 52.3164 56.043 52.4199 55.5156 52.4199C55.2969 52.4199 55.0391 52.3848 54.7422 52.3145C54.4492 52.248 54.1602 52.1328 53.875 51.9688C53.5938 51.8086 53.3574 51.5918 53.166 51.3184L53.7344 50.6738C54 50.9941 54.2773 51.2168 54.5664 51.3418C54.8594 51.4668 55.1484 51.5293 55.4336 51.5293C55.7773 51.5293 56.0742 51.4648 56.3242 51.3359C56.5742 51.207 56.7676 51.0156 56.9043 50.7617C57.0449 50.5117 57.1152 50.2031 57.1152 49.8359V44.9727L57.2148 43.5781ZM52.8496 46.8184V46.6953C52.8496 46.2109 52.9062 45.7715 53.0195 45.377C53.1367 44.9785 53.3027 44.6367 53.5176 44.3516C53.7363 44.0664 54 43.8477 54.3086 43.6953C54.6172 43.5391 54.9648 43.4609 55.3516 43.4609C55.75 43.4609 56.0977 43.5312 56.3945 43.6719C56.6953 43.8086 56.9492 44.0098 57.1562 44.2754C57.3672 44.5371 57.5332 44.8535 57.6543 45.2246C57.7754 45.5957 57.8594 46.0156 57.9062 46.4844V47.0234C57.8633 47.4883 57.7793 47.9062 57.6543 48.2773C57.5332 48.6484 57.3672 48.9648 57.1562 49.2266C56.9492 49.4883 56.6953 49.6895 56.3945 49.8301C56.0938 49.9668 55.7422 50.0352 55.3398 50.0352C54.9609 50.0352 54.6172 49.9551 54.3086 49.7949C54.0039 49.6348 53.7422 49.4102 53.5234 49.1211C53.3047 48.832 53.1367 48.4922 53.0195 48.1016C52.9062 47.707 52.8496 47.2793 52.8496 46.8184ZM53.9336 46.6953V46.8184C53.9336 47.1348 53.9648 47.4316 54.0273 47.709C54.0938 47.9863 54.1934 48.2305 54.3262 48.4414C54.4629 48.6523 54.6367 48.8184 54.8477 48.9395C55.0586 49.0566 55.3105 49.1152 55.6035 49.1152C55.9629 49.1152 56.2598 49.0391 56.4941 48.8867C56.7285 48.7344 56.9141 48.5332 57.0508 48.2832C57.1914 48.0332 57.3008 47.7617 57.3789 47.4688V46.0566C57.3359 45.8418 57.2695 45.6348 57.1797 45.4355C57.0938 45.2324 56.9805 45.0527 56.8398 44.8965C56.7031 44.7363 56.5332 44.6094 56.3301 44.5156C56.127 44.4219 55.8887 44.375 55.6152 44.375C55.3184 44.375 55.0625 44.4375 54.8477 44.5625C54.6367 44.6836 54.4629 44.8516 54.3262 45.0664C54.1934 45.2773 54.0938 45.5234 54.0273 45.8047C53.9648 46.082 53.9336 46.3789 53.9336 46.6953ZM62.4766 50.0352C62.0352 50.0352 61.6348 49.9609 61.2754 49.8125C60.9199 49.6602 60.6133 49.4473 60.3555 49.1738C60.1016 48.9004 59.9062 48.5762 59.7695 48.2012C59.6328 47.8262 59.5645 47.416 59.5645 46.9707V46.7246C59.5645 46.209 59.6406 45.75 59.793 45.3477C59.9453 44.9414 60.1523 44.5977 60.4141 44.3164C60.6758 44.0352 60.9727 43.8223 61.3047 43.6777C61.6367 43.5332 61.9805 43.4609 62.3359 43.4609C62.7891 43.4609 63.1797 43.5391 63.5078 43.6953C63.8398 43.8516 64.1113 44.0703 64.3223 44.3516C64.5332 44.6289 64.6895 44.957 64.791 45.3359C64.8926 45.7109 64.9434 46.1211 64.9434 46.5664V47.0527H60.209V46.168H63.8594V46.0859C63.8438 45.8047 63.7852 45.5312 63.6836 45.2656C63.5859 45 63.4297 44.7812 63.2148 44.6094C63 44.4375 62.707 44.3516 62.3359 44.3516C62.0898 44.3516 61.8633 44.4043 61.6562 44.5098C61.4492 44.6113 61.2715 44.7637 61.123 44.9668C60.9746 45.1699 60.8594 45.418 60.7773 45.7109C60.6953 46.0039 60.6543 46.3418 60.6543 46.7246V46.9707C60.6543 47.2715 60.6953 47.5547 60.7773 47.8203C60.8633 48.082 60.9863 48.3125 61.1465 48.5117C61.3105 48.7109 61.5078 48.8672 61.7383 48.9805C61.9727 49.0938 62.2383 49.1504 62.5352 49.1504C62.918 49.1504 63.2422 49.0723 63.5078 48.916C63.7734 48.7598 64.0059 48.5508 64.2051 48.2891L64.8613 48.8105C64.7246 49.0176 64.5508 49.2148 64.3398 49.4023C64.1289 49.5898 63.8691 49.7422 63.5605 49.8594C63.2559 49.9766 62.8945 50.0352 62.4766 50.0352ZM67.293 44.5742V49.918H66.209V43.5781H67.2637L67.293 44.5742ZM69.2734 43.543L69.2676 44.5508C69.1777 44.5312 69.0918 44.5195 69.0098 44.5156C68.9316 44.5078 68.8418 44.5039 68.7402 44.5039C68.4902 44.5039 68.2695 44.543 68.0781 44.6211C67.8867 44.6992 67.7246 44.8086 67.5918 44.9492C67.459 45.0898 67.3535 45.2578 67.2754 45.4531C67.2012 45.6445 67.1523 45.8555 67.1289 46.0859L66.8242 46.2617C66.8242 45.8789 66.8613 45.5195 66.9355 45.1836C67.0137 44.8477 67.1328 44.5508 67.293 44.293C67.4531 44.0312 67.6562 43.8281 67.9023 43.6836C68.1523 43.5352 68.4492 43.4609 68.793 43.4609C68.8711 43.4609 68.9609 43.4707 69.0625 43.4902C69.1641 43.5059 69.2344 43.5234 69.2734 43.543ZM77.248 48.6875V40.918H78.3379V49.918H77.3418L77.248 48.6875ZM72.9824 46.8184V46.6953C72.9824 46.2109 73.041 45.7715 73.1582 45.377C73.2793 44.9785 73.4492 44.6367 73.668 44.3516C73.8906 44.0664 74.1543 43.8477 74.459 43.6953C74.7676 43.5391 75.1113 43.4609 75.4902 43.4609C75.8887 43.4609 76.2363 43.5312 76.5332 43.6719C76.834 43.8086 77.0879 44.0098 77.2949 44.2754C77.5059 44.5371 77.6719 44.8535 77.793 45.2246C77.9141 45.5957 77.998 46.0156 78.0449 46.4844V47.0234C78.002 47.4883 77.918 47.9062 77.793 48.2773C77.6719 48.6484 77.5059 48.9648 77.2949 49.2266C77.0879 49.4883 76.834 49.6895 76.5332 49.8301C76.2324 49.9668 75.8809 50.0352 75.4785 50.0352C75.1074 50.0352 74.7676 49.9551 74.459 49.7949C74.1543 49.6348 73.8906 49.4102 73.668 49.1211C73.4492 48.832 73.2793 48.4922 73.1582 48.1016C73.041 47.707 72.9824 47.2793 72.9824 46.8184ZM74.0723 46.6953V46.8184C74.0723 47.1348 74.1035 47.4316 74.166 47.709C74.2324 47.9863 74.334 48.2305 74.4707 48.4414C74.6074 48.6523 74.7812 48.8184 74.9922 48.9395C75.2031 49.0566 75.4551 49.1152 75.748 49.1152C76.1074 49.1152 76.4023 49.0391 76.6328 48.8867C76.8672 48.7344 77.0547 48.5332 77.1953 48.2832C77.3359 48.0332 77.4453 47.7617 77.5234 47.4688V46.0566C77.4766 45.8418 77.4082 45.6348 77.3184 45.4355C77.2324 45.2324 77.1191 45.0527 76.9785 44.8965C76.8418 44.7363 76.6719 44.6094 76.4688 44.5156C76.2695 44.4219 76.0332 44.375 75.7598 44.375C75.4629 44.375 75.207 44.4375 74.9922 44.5625C74.7812 44.6836 74.6074 44.8516 74.4707 45.0664C74.334 45.2773 74.2324 45.5234 74.166 45.8047C74.1035 46.082 74.0723 46.3789 74.0723 46.6953ZM82.6562 50.0352C82.2148 50.0352 81.8145 49.9609 81.4551 49.8125C81.0996 49.6602 80.793 49.4473 80.5352 49.1738C80.2812 48.9004 80.0859 48.5762 79.9492 48.2012C79.8125 47.8262 79.7441 47.416 79.7441 46.9707V46.7246C79.7441 46.209 79.8203 45.75 79.9727 45.3477C80.125 44.9414 80.332 44.5977 80.5938 44.3164C80.8555 44.0352 81.1523 43.8223 81.4844 43.6777C81.8164 43.5332 82.1602 43.4609 82.5156 43.4609C82.9688 43.4609 83.3594 43.5391 83.6875 43.6953C84.0195 43.8516 84.291 44.0703 84.502 44.3516C84.7129 44.6289 84.8691 44.957 84.9707 45.3359C85.0723 45.7109 85.123 46.1211 85.123 46.5664V47.0527H80.3887V46.168H84.0391V46.0859C84.0234 45.8047 83.9648 45.5312 83.8633 45.2656C83.7656 45 83.6094 44.7812 83.3945 44.6094C83.1797 44.4375 82.8867 44.3516 82.5156 44.3516C82.2695 44.3516 82.043 44.4043 81.8359 44.5098C81.6289 44.6113 81.4512 44.7637 81.3027 44.9668C81.1543 45.1699 81.0391 45.418 80.957 45.7109C80.875 46.0039 80.834 46.3418 80.834 46.7246V46.9707C80.834 47.2715 80.875 47.5547 80.957 47.8203C81.043 48.082 81.166 48.3125 81.3262 48.5117C81.4902 48.7109 81.6875 48.8672 81.918 48.9805C82.1523 49.0938 82.418 49.1504 82.7148 49.1504C83.0977 49.1504 83.4219 49.0723 83.6875 48.916C83.9531 48.7598 84.1855 48.5508 84.3848 48.2891L85.041 48.8105C84.9043 49.0176 84.7305 49.2148 84.5195 49.4023C84.3086 49.5898 84.0488 49.7422 83.7402 49.8594C83.4355 49.9766 83.0742 50.0352 82.6562 50.0352ZM90.0801 48.2363C90.0801 48.0801 90.0449 47.9355 89.9746 47.8027C89.9082 47.666 89.7695 47.543 89.5586 47.4336C89.3516 47.3203 89.0391 47.2227 88.6211 47.1406C88.2695 47.0664 87.9512 46.9785 87.666 46.877C87.3848 46.7754 87.1445 46.6523 86.9453 46.5078C86.75 46.3633 86.5996 46.1934 86.4941 45.998C86.3887 45.8027 86.3359 45.5742 86.3359 45.3125C86.3359 45.0625 86.3906 44.8262 86.5 44.6035C86.6133 44.3809 86.7715 44.1836 86.9746 44.0117C87.1816 43.8398 87.4297 43.7051 87.7188 43.6074C88.0078 43.5098 88.3301 43.4609 88.6855 43.4609C89.1934 43.4609 89.627 43.5508 89.9863 43.7305C90.3457 43.9102 90.6211 44.1504 90.8125 44.4512C91.0039 44.748 91.0996 45.0781 91.0996 45.4414H90.0156C90.0156 45.2656 89.9629 45.0957 89.8574 44.9316C89.7559 44.7637 89.6055 44.625 89.4062 44.5156C89.2109 44.4062 88.9707 44.3516 88.6855 44.3516C88.3848 44.3516 88.1406 44.3984 87.9531 44.4922C87.7695 44.582 87.6348 44.6973 87.5488 44.8379C87.4668 44.9785 87.4258 45.127 87.4258 45.2832C87.4258 45.4004 87.4453 45.5059 87.4844 45.5996C87.5273 45.6895 87.6016 45.7734 87.707 45.8516C87.8125 45.9258 87.9609 45.9961 88.1523 46.0625C88.3438 46.1289 88.5879 46.1953 88.8848 46.2617C89.4043 46.3789 89.832 46.5195 90.168 46.6836C90.5039 46.8477 90.7539 47.0488 90.918 47.2871C91.082 47.5254 91.1641 47.8145 91.1641 48.1543C91.1641 48.4316 91.1055 48.6855 90.9883 48.916C90.875 49.1465 90.709 49.3457 90.4902 49.5137C90.2754 49.6777 90.0176 49.8066 89.7168 49.9004C89.4199 49.9902 89.0859 50.0352 88.7148 50.0352C88.1562 50.0352 87.6836 49.9355 87.2969 49.7363C86.9102 49.5371 86.6172 49.2793 86.418 48.9629C86.2188 48.6465 86.1191 48.3125 86.1191 47.9609H87.209C87.2246 48.2578 87.3105 48.4941 87.4668 48.6699C87.623 48.8418 87.8145 48.9648 88.041 49.0391C88.2676 49.1094 88.4922 49.1445 88.7148 49.1445C89.0117 49.1445 89.2598 49.1055 89.459 49.0273C89.6621 48.9492 89.8164 48.8418 89.9219 48.7051C90.0273 48.5684 90.0801 48.4121 90.0801 48.2363ZM98.6465 41.3867V49.918H97.5332V41.3867H98.6465ZM101.389 41.3867V42.3125H94.7969V41.3867H101.389ZM103.867 41.3867V49.918H102.736V41.3867H103.867ZM111.496 45.0547V45.9746H106.879V45.0547H111.496ZM107.055 41.3867V49.918H105.924V41.3867H107.055ZM112.48 41.3867V49.918H111.355V41.3867H112.48Z" fill="#495057"/>
</svg>
